<svg xmlns="http://www.w3.org/2000/svg" xmlns:xlink="http://www.w3.org/1999/xlink" viewBox="0 0 308 63"><defs><style>.cls-1{fill:url(#未命名的渐变_4);}.cls-2{fill:url(#未命名的渐变_4-2);}.cls-3{fill:url(#未命名的渐变_4-3);}.cls-4{fill:url(#未命名的渐变_4-4);}</style><linearGradient id="未命名的渐变_4" x1="81" y1="31.5" x2="308" y2="31.5" gradientUnits="userSpaceOnUse"><stop offset="0" stop-color="#e73828"/><stop offset="1" stop-color="#c30d23"/></linearGradient><linearGradient id="未命名的渐变_4-2" x1="42.19" y1="20.82" x2="67.71" y2="20.82" xlink:href="#未命名的渐变_4"/><linearGradient id="未命名的渐变_4-3" x1="26.95" y1="20.99" x2="45.19" y2="20.99" gradientTransform="translate(5.41 -7.32) rotate(12.52)" xlink:href="#未命名的渐变_4"/><linearGradient id="未命名的渐变_4-4" x1="0" x2="68" xlink:href="#未命名的渐变_4"/></defs><title>资源 18</title><g id="图层_2" data-name="图层 2"><g id="图层_1-2" data-name="图层 1"><path class="cls-1" d="M96.84,6.08H89.62L81,30.33h5.34V56.54h6.91V26.46H90.43ZM129,15.45,125,6.08h-6.92l3.95,9.37Zm3.7,6V17.1H109.27l1.52-11h-7l-1.52,11H96.47v4.36h5.16L96.78,56.54h7l4.85-35.09h6.91V56.54h17.11V52.27H122.5V21.45Zm15,10h-6.49V52l-2.19.66V57l23.06-7.31V45.33l-14.38,4.61ZM150,45.33h6.55v-10h3.7V31.44h-3.7V26.68h3.09V7.45H140.61V26.68H150Zm-2.61-22.52V11.31h5.34V22.81Zm44.17-3v-9l-20.66-.08,0-4.6H164l-2.43,8.55h23.11v3.21l-8.74,4.19-14.32-6.16V21l8.68,3.7-8.74,4.11V34l14.38-6.82L191.64,34V28.81l-10.07-4.35ZM163.12,56.43h26.94V34.48H163.12Zm6.61-18.08h13.71V52.56H169.74ZM220.12,15.7,218,20.87l-2.48.08V13.4h11.12l0-3.62h-11.1V6H208.6V9.78h-9.1V13.4h9.1V21h-9.1v3.53h3.94L198,38h6.92l2.36-6H219l-6.92,8v1.82H199.5v3.53h12.56V53h-6.43l0,3.53H219V45.36h7.64V41.83H219V40l6.92-8V28.52H208.72l1.64-4h16.25V20.87l-1.7.08L227,15.7ZM240,6.16h-6.91l-5.64,14h6.91l2.92-7.23h4.43v8.93l-2.55,6.28-2.25-5.38H230l5.7,13.63-8.25,20.19h6.91l4.85-11.82,5,11.82h6.92l-8.49-20.22,6-14.55V12.9h2.49V9.29H238.81Zm68,7.32V9.86l-19.52.08V6.09h-6.8V9.95H257.47v3.53h7l-2.79,8.87h35.43l.6,1.4h7.52l-3.46-8.05H294.3l1.28,3.12H270.15l1.64-5.34ZM263.9,25.89V42.57l-1.51,14h6.86l1-10.52h25.6v6.82h-5.4l0,3.86h12.33V25.89H263.9Zm32,16.44H270.82V37.72h25.06Zm0-8.47H270.82V29.59h25.06Z"/><path class="cls-2" d="M67.71,0,45.5,6.08a23.55,23.55,0,0,1,3.91,6.3ZM45.64,37a23.66,23.66,0,0,1-3.06,3l-.4.4,6.2,1.26-.82-6.55ZM50.88,26.1a23.7,23.7,0,0,1-2.2,6.38l10.9.63-8.44-7.7Zm-.13-9.61a23.67,23.67,0,0,1,.52,6.05l13.91-3.66L50.38,15.15C50.5,15.59,50.64,16,50.75,16.49Z"/><circle class="cls-3" cx="36.07" cy="20.99" r="9.11" transform="translate(-3.69 8.32) rotate(-12.52)"/><path class="cls-4" d="M68,18.35c-5.56,35-46.09,26.34-46.09,26.34L22.36,0,5.44,4.49h0L0,5.92,5.44,9.06,5.08,60.65C71.55,75.08,68,18.35,68,18.35Z"/></g></g></svg>