<?xml version="1.0" standalone="no"?><!DOCTYPE svg PUBLIC "-//W3C//DTD SVG 1.1//EN" "http://www.w3.org/Graphics/SVG/1.1/DTD/svg11.dtd"><svg class="icon" width="16px" height="16.00px" viewBox="0 0 1024 1024" version="1.1" xmlns="http://www.w3.org/2000/svg"><path d="M700.08 710.192h-304c-13.264 0-24-10.752-24-24s10.736-24 24-24h304c13.264 0 24 10.752 24 24s-10.736 24-24 24zM716.08 490.224c0 13.248-10.736 24-24 24h-304c-13.264 0-24-10.752-24-24s10.736-24 24-24h304c13.264 0 24 10.752 24 24zM215.92 686.192a2.5 2.5 0 1 0 80 0 2.5 2.5 0 1 0-80 0zM215.92 490.224a2.5 2.5 0 1 0 80 0 2.5 2.5 0 1 0-80 0zM710.752 294.256c0 13.248-10.736 24-24 24h-304c-13.264 0-24-10.752-24-24s10.736-24 24-24h304c13.248 0 24 10.752 24 24zM215.92 294.256a2.5 2.5 0 1 0 80 0 2.5 2.5 0 1 0-80 0z" fill="#707070" /><path d="M792 96H136c-17.664 0-32 14.32-32 32v864c0 17.664 14.336 32 32 32h496l192-192V128c0-17.68-14.336-32-32-32z m-16 672H600c-17.664 0-32 14.336-32 32v176H184c-17.664 0-32-14.336-32-32V176c0-17.68 14.336-32 32-32h560c17.664 0 32 14.32 32 32v592z" fill="#707070" /><path d="M888 0H220c-26.496 0-48 21.488-48 48h668c17.664 0 32 14.32 32 32v667.664c26.384 0 47.776-21.312 47.968-47.664H920V32c0-17.68-14.336-32-32-32z" fill="#707070" /></svg>